<mxfile host="app.diagrams.net" modified="2022-04-22T16:26:28.089Z" agent="5.0 (Macintosh)" etag="gzAOBAFutwOArqDXl9k4" version="17.4.6" type="github">
  <diagram id="C5RBs43oDa-KdzZeNtuy" name="Page-1">
    <mxGraphModel dx="761" dy="682" grid="1" gridSize="10" guides="1" tooltips="1" connect="1" arrows="1" fold="1" page="1" pageScale="1" pageWidth="850" pageHeight="1100" math="0" shadow="0">
      <root>
        <mxCell id="WIyWlLk6GJQsqaUBKTNV-0" />
        <mxCell id="WIyWlLk6GJQsqaUBKTNV-1" parent="WIyWlLk6GJQsqaUBKTNV-0" />
        <mxCell id="Rkgqq4P7jmTMuiDcoh1J-63" style="edgeStyle=orthogonalEdgeStyle;rounded=0;orthogonalLoop=1;jettySize=auto;html=1;exitX=0.25;exitY=0;exitDx=0;exitDy=0;fontSize=10;endArrow=classic;endFill=1;entryX=0;entryY=0.5;entryDx=0;entryDy=0;" edge="1" parent="WIyWlLk6GJQsqaUBKTNV-1" source="Rkgqq4P7jmTMuiDcoh1J-1" target="Rkgqq4P7jmTMuiDcoh1J-26">
          <mxGeometry relative="1" as="geometry">
            <mxPoint x="310" y="250" as="targetPoint" />
            <Array as="points">
              <mxPoint x="373" y="420" />
              <mxPoint x="310" y="420" />
              <mxPoint x="310" y="40" />
            </Array>
          </mxGeometry>
        </mxCell>
        <mxCell id="Rkgqq4P7jmTMuiDcoh1J-1" value="&lt;div&gt;SEQUENCING&lt;/div&gt;&lt;div&gt;Real-time basecalling and demultiplexing in MinKnow&lt;br&gt;&lt;/div&gt;" style="rounded=1;whiteSpace=wrap;html=1;strokeWidth=3;" vertex="1" parent="WIyWlLk6GJQsqaUBKTNV-1">
          <mxGeometry x="310" y="495" width="249.99" height="75" as="geometry" />
        </mxCell>
        <mxCell id="Rkgqq4P7jmTMuiDcoh1J-37" style="edgeStyle=orthogonalEdgeStyle;rounded=0;orthogonalLoop=1;jettySize=auto;html=1;exitX=1;exitY=0.5;exitDx=0;exitDy=0;entryX=0;entryY=0.5;entryDx=0;entryDy=0;fontSize=10;endArrow=none;endFill=0;" edge="1" parent="WIyWlLk6GJQsqaUBKTNV-1" source="Rkgqq4P7jmTMuiDcoh1J-2" target="Rkgqq4P7jmTMuiDcoh1J-3">
          <mxGeometry relative="1" as="geometry" />
        </mxCell>
        <mxCell id="Rkgqq4P7jmTMuiDcoh1J-2" value="&lt;div style=&quot;font-size: 10px&quot;&gt;&lt;font style=&quot;font-size: 10px&quot;&gt;One-step &lt;i&gt;hrp2 &lt;/i&gt;PCR prep&lt;/font&gt;&lt;/div&gt;" style="shape=step;perimeter=stepPerimeter;whiteSpace=wrap;html=1;fixedSize=1;rotation=90;horizontal=0;spacingLeft=3;spacing=3;spacingTop=7;" vertex="1" parent="WIyWlLk6GJQsqaUBKTNV-1">
          <mxGeometry x="150" y="70" width="60" height="80" as="geometry" />
        </mxCell>
        <mxCell id="Rkgqq4P7jmTMuiDcoh1J-38" style="edgeStyle=orthogonalEdgeStyle;rounded=0;orthogonalLoop=1;jettySize=auto;html=1;exitX=1;exitY=0.5;exitDx=0;exitDy=0;entryX=0;entryY=0.5;entryDx=0;entryDy=0;fontSize=10;endArrow=none;endFill=0;" edge="1" parent="WIyWlLk6GJQsqaUBKTNV-1" source="Rkgqq4P7jmTMuiDcoh1J-3" target="Rkgqq4P7jmTMuiDcoh1J-27">
          <mxGeometry relative="1" as="geometry" />
        </mxCell>
        <mxCell id="Rkgqq4P7jmTMuiDcoh1J-3" value="&lt;div style=&quot;font-size: 10px&quot;&gt;&lt;font style=&quot;font-size: 10px&quot;&gt;One-step &lt;i&gt;hrp2 &lt;/i&gt;PCR&lt;br&gt;&lt;/font&gt;&lt;/div&gt;" style="shape=step;perimeter=stepPerimeter;whiteSpace=wrap;html=1;fixedSize=1;rotation=90;horizontal=0;spacingLeft=3;spacing=3;spacingTop=7;" vertex="1" parent="WIyWlLk6GJQsqaUBKTNV-1">
          <mxGeometry x="147.5" y="128.5" width="65" height="80" as="geometry" />
        </mxCell>
        <mxCell id="Rkgqq4P7jmTMuiDcoh1J-44" style="edgeStyle=orthogonalEdgeStyle;rounded=0;orthogonalLoop=1;jettySize=auto;html=1;exitX=1;exitY=0.5;exitDx=0;exitDy=0;entryX=0;entryY=0.5;entryDx=0;entryDy=0;fontSize=10;endArrow=none;endFill=0;" edge="1" parent="WIyWlLk6GJQsqaUBKTNV-1" source="Rkgqq4P7jmTMuiDcoh1J-9" target="Rkgqq4P7jmTMuiDcoh1J-10">
          <mxGeometry relative="1" as="geometry" />
        </mxCell>
        <mxCell id="Rkgqq4P7jmTMuiDcoh1J-9" value="&lt;font style=&quot;font-size: 10px&quot;&gt;Adapter ligation and clean-up&lt;/font&gt;" style="shape=step;perimeter=stepPerimeter;whiteSpace=wrap;html=1;fixedSize=1;rotation=90;horizontal=0;spacingLeft=3;spacing=3;" vertex="1" parent="WIyWlLk6GJQsqaUBKTNV-1">
          <mxGeometry x="150" y="470" width="60" height="80" as="geometry" />
        </mxCell>
        <mxCell id="Rkgqq4P7jmTMuiDcoh1J-62" style="edgeStyle=orthogonalEdgeStyle;rounded=0;orthogonalLoop=1;jettySize=auto;html=1;exitX=1;exitY=0.5;exitDx=0;exitDy=0;entryX=0.5;entryY=1;entryDx=0;entryDy=0;fontSize=10;endArrow=classic;endFill=1;" edge="1" parent="WIyWlLk6GJQsqaUBKTNV-1" source="Rkgqq4P7jmTMuiDcoh1J-10" target="Rkgqq4P7jmTMuiDcoh1J-1">
          <mxGeometry relative="1" as="geometry" />
        </mxCell>
        <mxCell id="Rkgqq4P7jmTMuiDcoh1J-10" value="&lt;div style=&quot;font-size: 10px&quot;&gt;&lt;font style=&quot;font-size: 10px&quot;&gt;Final quantitation&lt;/font&gt;&lt;/div&gt;" style="shape=step;perimeter=stepPerimeter;whiteSpace=wrap;html=1;fixedSize=1;rotation=90;horizontal=0;spacingLeft=3;spacing=3;" vertex="1" parent="WIyWlLk6GJQsqaUBKTNV-1">
          <mxGeometry x="145" y="525" width="70" height="80" as="geometry" />
        </mxCell>
        <mxCell id="Rkgqq4P7jmTMuiDcoh1J-11" value="&lt;b&gt;~30 mins&lt;/b&gt;" style="text;html=1;strokeColor=none;fillColor=none;align=center;verticalAlign=middle;whiteSpace=wrap;rounded=0;fontSize=10;" vertex="1" parent="WIyWlLk6GJQsqaUBKTNV-1">
          <mxGeometry x="230" y="90" width="60" height="30" as="geometry" />
        </mxCell>
        <mxCell id="Rkgqq4P7jmTMuiDcoh1J-12" value="&lt;b&gt;~2.5 hours&lt;br&gt;&lt;/b&gt;" style="text;html=1;strokeColor=none;fillColor=none;align=center;verticalAlign=middle;whiteSpace=wrap;rounded=0;fontSize=10;" vertex="1" parent="WIyWlLk6GJQsqaUBKTNV-1">
          <mxGeometry x="230" y="149" width="60" height="30" as="geometry" />
        </mxCell>
        <mxCell id="Rkgqq4P7jmTMuiDcoh1J-13" value="&lt;b&gt;~45 mins&lt;/b&gt;" style="text;html=1;strokeColor=none;fillColor=none;align=center;verticalAlign=middle;whiteSpace=wrap;rounded=0;fontSize=10;" vertex="1" parent="WIyWlLk6GJQsqaUBKTNV-1">
          <mxGeometry x="230" y="212" width="60" height="30" as="geometry" />
        </mxCell>
        <mxCell id="Rkgqq4P7jmTMuiDcoh1J-14" value="&lt;b&gt;~2.5 hours&lt;br&gt;&lt;/b&gt;" style="text;html=1;strokeColor=none;fillColor=none;align=center;verticalAlign=middle;whiteSpace=wrap;rounded=0;fontSize=10;" vertex="1" parent="WIyWlLk6GJQsqaUBKTNV-1">
          <mxGeometry x="230" y="275" width="60" height="30" as="geometry" />
        </mxCell>
        <mxCell id="Rkgqq4P7jmTMuiDcoh1J-16" value="&lt;b&gt;~20 mins&lt;/b&gt;" style="text;html=1;strokeColor=none;fillColor=none;align=center;verticalAlign=middle;whiteSpace=wrap;rounded=0;fontSize=10;" vertex="1" parent="WIyWlLk6GJQsqaUBKTNV-1">
          <mxGeometry x="230" y="330" width="60" height="30" as="geometry" />
        </mxCell>
        <mxCell id="Rkgqq4P7jmTMuiDcoh1J-42" style="edgeStyle=orthogonalEdgeStyle;rounded=0;orthogonalLoop=1;jettySize=auto;html=1;exitX=1;exitY=0.5;exitDx=0;exitDy=0;entryX=0;entryY=0.5;entryDx=0;entryDy=0;fontSize=10;endArrow=none;endFill=0;" edge="1" parent="WIyWlLk6GJQsqaUBKTNV-1" source="Rkgqq4P7jmTMuiDcoh1J-17" target="Rkgqq4P7jmTMuiDcoh1J-31">
          <mxGeometry relative="1" as="geometry" />
        </mxCell>
        <mxCell id="Rkgqq4P7jmTMuiDcoh1J-17" value="&lt;font style=&quot;font-size: 10px&quot;&gt;Cleanup&lt;/font&gt;" style="shape=step;perimeter=stepPerimeter;whiteSpace=wrap;html=1;fixedSize=1;rotation=90;horizontal=0;spacingLeft=3;spacing=3;" vertex="1" parent="WIyWlLk6GJQsqaUBKTNV-1">
          <mxGeometry x="150" y="360" width="60" height="80" as="geometry" />
        </mxCell>
        <mxCell id="Rkgqq4P7jmTMuiDcoh1J-18" value="&lt;b&gt;~30 mins&lt;/b&gt;" style="text;html=1;strokeColor=none;fillColor=none;align=center;verticalAlign=middle;whiteSpace=wrap;rounded=0;fontSize=10;" vertex="1" parent="WIyWlLk6GJQsqaUBKTNV-1">
          <mxGeometry x="230" y="385" width="60" height="30" as="geometry" />
        </mxCell>
        <mxCell id="Rkgqq4P7jmTMuiDcoh1J-19" value="&lt;b&gt;~35 mins&lt;/b&gt;" style="text;html=1;strokeColor=none;fillColor=none;align=center;verticalAlign=middle;whiteSpace=wrap;rounded=0;fontSize=10;" vertex="1" parent="WIyWlLk6GJQsqaUBKTNV-1">
          <mxGeometry x="230" y="440" width="60" height="30" as="geometry" />
        </mxCell>
        <mxCell id="Rkgqq4P7jmTMuiDcoh1J-20" value="&lt;b&gt;~30 mins&lt;/b&gt;" style="text;html=1;strokeColor=none;fillColor=none;align=center;verticalAlign=middle;whiteSpace=wrap;rounded=0;fontSize=10;" vertex="1" parent="WIyWlLk6GJQsqaUBKTNV-1">
          <mxGeometry x="230" y="495" width="60" height="30" as="geometry" />
        </mxCell>
        <mxCell id="Rkgqq4P7jmTMuiDcoh1J-21" value="&lt;b&gt;~30 mins&lt;/b&gt;" style="text;html=1;strokeColor=none;fillColor=none;align=center;verticalAlign=middle;whiteSpace=wrap;rounded=0;fontSize=10;" vertex="1" parent="WIyWlLk6GJQsqaUBKTNV-1">
          <mxGeometry x="230" y="550" width="60" height="30" as="geometry" />
        </mxCell>
        <mxCell id="Rkgqq4P7jmTMuiDcoh1J-36" style="edgeStyle=orthogonalEdgeStyle;rounded=0;orthogonalLoop=1;jettySize=auto;html=1;exitX=0.5;exitY=1;exitDx=0;exitDy=0;entryX=0;entryY=0.5;entryDx=0;entryDy=0;fontSize=10;endArrow=none;endFill=0;" edge="1" parent="WIyWlLk6GJQsqaUBKTNV-1" source="Rkgqq4P7jmTMuiDcoh1J-25" target="Rkgqq4P7jmTMuiDcoh1J-2">
          <mxGeometry relative="1" as="geometry" />
        </mxCell>
        <mxCell id="Rkgqq4P7jmTMuiDcoh1J-25" value="LABORATORY" style="rounded=1;whiteSpace=wrap;html=1;strokeWidth=3;" vertex="1" parent="WIyWlLk6GJQsqaUBKTNV-1">
          <mxGeometry x="120.00999999999999" y="10" width="120" height="60" as="geometry" />
        </mxCell>
        <mxCell id="Rkgqq4P7jmTMuiDcoh1J-64" style="edgeStyle=orthogonalEdgeStyle;rounded=0;orthogonalLoop=1;jettySize=auto;html=1;exitX=0.5;exitY=1;exitDx=0;exitDy=0;entryX=0;entryY=0.5;entryDx=0;entryDy=0;fontSize=10;endArrow=none;endFill=0;" edge="1" parent="WIyWlLk6GJQsqaUBKTNV-1" target="Rkgqq4P7jmTMuiDcoh1J-35">
          <mxGeometry relative="1" as="geometry">
            <mxPoint x="405" y="70" as="sourcePoint" />
          </mxGeometry>
        </mxCell>
        <mxCell id="Rkgqq4P7jmTMuiDcoh1J-26" value="ANALYSIS" style="rounded=1;whiteSpace=wrap;html=1;strokeWidth=3;" vertex="1" parent="WIyWlLk6GJQsqaUBKTNV-1">
          <mxGeometry x="341" y="10" width="120" height="60" as="geometry" />
        </mxCell>
        <mxCell id="Rkgqq4P7jmTMuiDcoh1J-39" style="edgeStyle=orthogonalEdgeStyle;rounded=0;orthogonalLoop=1;jettySize=auto;html=1;exitX=1;exitY=0.5;exitDx=0;exitDy=0;entryX=0;entryY=0.5;entryDx=0;entryDy=0;fontSize=10;endArrow=none;endFill=0;" edge="1" parent="WIyWlLk6GJQsqaUBKTNV-1" source="Rkgqq4P7jmTMuiDcoh1J-27" target="Rkgqq4P7jmTMuiDcoh1J-28">
          <mxGeometry relative="1" as="geometry" />
        </mxCell>
        <mxCell id="Rkgqq4P7jmTMuiDcoh1J-27" value="&lt;div style=&quot;font-size: 10px&quot;&gt;Barcoding PCR prep&lt;/div&gt;" style="shape=step;perimeter=stepPerimeter;whiteSpace=wrap;html=1;fixedSize=1;rotation=90;horizontal=0;spacingLeft=3;spacing=3;spacingTop=7;" vertex="1" parent="WIyWlLk6GJQsqaUBKTNV-1">
          <mxGeometry x="147.51" y="190" width="65" height="80" as="geometry" />
        </mxCell>
        <mxCell id="Rkgqq4P7jmTMuiDcoh1J-40" style="edgeStyle=orthogonalEdgeStyle;rounded=0;orthogonalLoop=1;jettySize=auto;html=1;exitX=1;exitY=0.5;exitDx=0;exitDy=0;entryX=0;entryY=0.5;entryDx=0;entryDy=0;fontSize=10;endArrow=none;endFill=0;" edge="1" parent="WIyWlLk6GJQsqaUBKTNV-1" source="Rkgqq4P7jmTMuiDcoh1J-28" target="Rkgqq4P7jmTMuiDcoh1J-30">
          <mxGeometry relative="1" as="geometry" />
        </mxCell>
        <mxCell id="Rkgqq4P7jmTMuiDcoh1J-28" value="&lt;div style=&quot;font-size: 10px&quot;&gt;Barcoding PCR&lt;br&gt;&lt;/div&gt;" style="shape=step;perimeter=stepPerimeter;whiteSpace=wrap;html=1;fixedSize=1;rotation=90;horizontal=0;spacingLeft=3;spacing=3;spacingTop=7;" vertex="1" parent="WIyWlLk6GJQsqaUBKTNV-1">
          <mxGeometry x="147.51" y="250" width="65" height="80" as="geometry" />
        </mxCell>
        <mxCell id="Rkgqq4P7jmTMuiDcoh1J-41" style="edgeStyle=orthogonalEdgeStyle;rounded=0;orthogonalLoop=1;jettySize=auto;html=1;exitX=1;exitY=0.5;exitDx=0;exitDy=0;entryX=0;entryY=0.5;entryDx=0;entryDy=0;fontSize=10;endArrow=none;endFill=0;" edge="1" parent="WIyWlLk6GJQsqaUBKTNV-1" source="Rkgqq4P7jmTMuiDcoh1J-30" target="Rkgqq4P7jmTMuiDcoh1J-17">
          <mxGeometry relative="1" as="geometry" />
        </mxCell>
        <mxCell id="Rkgqq4P7jmTMuiDcoh1J-30" value="&lt;font style=&quot;font-size: 10px&quot;&gt;Pooling&lt;/font&gt;" style="shape=step;perimeter=stepPerimeter;whiteSpace=wrap;html=1;fixedSize=1;rotation=90;horizontal=0;spacingLeft=3;spacing=3;" vertex="1" parent="WIyWlLk6GJQsqaUBKTNV-1">
          <mxGeometry x="151.25" y="305" width="57.5" height="80" as="geometry" />
        </mxCell>
        <mxCell id="Rkgqq4P7jmTMuiDcoh1J-43" style="edgeStyle=orthogonalEdgeStyle;rounded=0;orthogonalLoop=1;jettySize=auto;html=1;exitX=1;exitY=0.5;exitDx=0;exitDy=0;entryX=0;entryY=0.5;entryDx=0;entryDy=0;fontSize=10;endArrow=none;endFill=0;" edge="1" parent="WIyWlLk6GJQsqaUBKTNV-1" source="Rkgqq4P7jmTMuiDcoh1J-31" target="Rkgqq4P7jmTMuiDcoh1J-9">
          <mxGeometry relative="1" as="geometry" />
        </mxCell>
        <mxCell id="Rkgqq4P7jmTMuiDcoh1J-31" value="&lt;div&gt;&lt;font style=&quot;font-size: 10px&quot;&gt;DNA repair &amp;amp; end-prep&lt;/font&gt;&lt;/div&gt;" style="shape=step;perimeter=stepPerimeter;whiteSpace=wrap;html=1;fixedSize=1;rotation=90;horizontal=0;spacingLeft=3;spacing=3;" vertex="1" parent="WIyWlLk6GJQsqaUBKTNV-1">
          <mxGeometry x="147.5" y="417.5" width="65" height="80" as="geometry" />
        </mxCell>
        <mxCell id="Rkgqq4P7jmTMuiDcoh1J-33" value="&lt;b&gt;~3-12 hours&lt;br&gt;&lt;/b&gt;" style="text;html=1;strokeColor=none;fillColor=none;align=center;verticalAlign=middle;whiteSpace=wrap;rounded=0;fontSize=10;" vertex="1" parent="WIyWlLk6GJQsqaUBKTNV-1">
          <mxGeometry x="565" y="517.5" width="60" height="30" as="geometry" />
        </mxCell>
        <mxCell id="Rkgqq4P7jmTMuiDcoh1J-65" style="edgeStyle=orthogonalEdgeStyle;rounded=0;orthogonalLoop=1;jettySize=auto;html=1;exitX=1;exitY=0.5;exitDx=0;exitDy=0;entryX=0;entryY=0.5;entryDx=0;entryDy=0;fontSize=10;endArrow=none;endFill=0;" edge="1" parent="WIyWlLk6GJQsqaUBKTNV-1" source="Rkgqq4P7jmTMuiDcoh1J-35" target="Rkgqq4P7jmTMuiDcoh1J-50">
          <mxGeometry relative="1" as="geometry" />
        </mxCell>
        <mxCell id="Rkgqq4P7jmTMuiDcoh1J-35" value="&lt;div style=&quot;font-size: 10px&quot;&gt;Quality check&lt;/div&gt;" style="shape=step;perimeter=stepPerimeter;whiteSpace=wrap;html=1;fixedSize=1;rotation=90;horizontal=0;spacingLeft=3;spacing=3;spacingTop=7;" vertex="1" parent="WIyWlLk6GJQsqaUBKTNV-1">
          <mxGeometry x="371" y="69" width="60" height="80" as="geometry" />
        </mxCell>
        <mxCell id="Rkgqq4P7jmTMuiDcoh1J-46" value="&lt;div align=&quot;center&quot;&gt;[OPTION]&lt;/div&gt;&lt;div align=&quot;center&quot;&gt;Gel electrophoresis&lt;br&gt;&lt;/div&gt;" style="shape=step;perimeter=stepPerimeter;whiteSpace=wrap;html=1;fixedSize=1;fontSize=10;" vertex="1" parent="WIyWlLk6GJQsqaUBKTNV-1">
          <mxGeometry x="10" y="170.5" width="125" height="44.5" as="geometry" />
        </mxCell>
        <mxCell id="Rkgqq4P7jmTMuiDcoh1J-47" value="&lt;div align=&quot;center&quot;&gt;[OPTION]&lt;/div&gt;&lt;div align=&quot;center&quot;&gt;Gel electrophoresis&lt;/div&gt;&lt;div align=&quot;center&quot;&gt;&amp;amp; quantitation&lt;br&gt;&lt;/div&gt;" style="shape=step;perimeter=stepPerimeter;whiteSpace=wrap;html=1;fixedSize=1;fontSize=10;" vertex="1" parent="WIyWlLk6GJQsqaUBKTNV-1">
          <mxGeometry y="290" width="135" height="50" as="geometry" />
        </mxCell>
        <mxCell id="Rkgqq4P7jmTMuiDcoh1J-66" style="edgeStyle=orthogonalEdgeStyle;rounded=0;orthogonalLoop=1;jettySize=auto;html=1;exitX=1;exitY=0.5;exitDx=0;exitDy=0;entryX=0;entryY=0.5;entryDx=0;entryDy=0;fontSize=10;endArrow=none;endFill=0;" edge="1" parent="WIyWlLk6GJQsqaUBKTNV-1" source="Rkgqq4P7jmTMuiDcoh1J-50" target="Rkgqq4P7jmTMuiDcoh1J-51">
          <mxGeometry relative="1" as="geometry" />
        </mxCell>
        <mxCell id="Rkgqq4P7jmTMuiDcoh1J-50" value="&lt;div style=&quot;font-size: 10px&quot;&gt;Alignment&lt;/div&gt;" style="shape=step;perimeter=stepPerimeter;whiteSpace=wrap;html=1;fixedSize=1;rotation=90;horizontal=0;spacingLeft=3;spacing=3;spacingTop=7;" vertex="1" parent="WIyWlLk6GJQsqaUBKTNV-1">
          <mxGeometry x="371" y="120" width="60" height="80" as="geometry" />
        </mxCell>
        <mxCell id="Rkgqq4P7jmTMuiDcoh1J-58" style="edgeStyle=orthogonalEdgeStyle;rounded=0;orthogonalLoop=1;jettySize=auto;html=1;exitX=0.5;exitY=0;exitDx=0;exitDy=0;fontSize=10;endArrow=classic;endFill=1;" edge="1" parent="WIyWlLk6GJQsqaUBKTNV-1" source="Rkgqq4P7jmTMuiDcoh1J-51" target="Rkgqq4P7jmTMuiDcoh1J-55">
          <mxGeometry relative="1" as="geometry" />
        </mxCell>
        <mxCell id="Rkgqq4P7jmTMuiDcoh1J-67" style="edgeStyle=orthogonalEdgeStyle;rounded=0;orthogonalLoop=1;jettySize=auto;html=1;exitX=1;exitY=0.5;exitDx=0;exitDy=0;entryX=0;entryY=0.5;entryDx=0;entryDy=0;fontSize=10;endArrow=none;endFill=0;" edge="1" parent="WIyWlLk6GJQsqaUBKTNV-1" source="Rkgqq4P7jmTMuiDcoh1J-51" target="Rkgqq4P7jmTMuiDcoh1J-52">
          <mxGeometry relative="1" as="geometry" />
        </mxCell>
        <mxCell id="Rkgqq4P7jmTMuiDcoh1J-51" value="&lt;div style=&quot;font-size: 10px&quot;&gt;Set positivity threshold&lt;br&gt;&lt;/div&gt;" style="shape=step;perimeter=stepPerimeter;whiteSpace=wrap;html=1;fixedSize=1;rotation=90;horizontal=0;spacingLeft=3;spacing=3;spacingTop=7;" vertex="1" parent="WIyWlLk6GJQsqaUBKTNV-1">
          <mxGeometry x="371" y="170" width="60" height="80" as="geometry" />
        </mxCell>
        <mxCell id="Rkgqq4P7jmTMuiDcoh1J-68" style="edgeStyle=orthogonalEdgeStyle;rounded=0;orthogonalLoop=1;jettySize=auto;html=1;exitX=1;exitY=0.5;exitDx=0;exitDy=0;entryX=0;entryY=0.5;entryDx=0;entryDy=0;fontSize=10;endArrow=none;endFill=0;" edge="1" parent="WIyWlLk6GJQsqaUBKTNV-1" source="Rkgqq4P7jmTMuiDcoh1J-52" target="Rkgqq4P7jmTMuiDcoh1J-53">
          <mxGeometry relative="1" as="geometry" />
        </mxCell>
        <mxCell id="Rkgqq4P7jmTMuiDcoh1J-52" value="&lt;div style=&quot;font-size: 10px&quot;&gt;&lt;i&gt;de novo &lt;/i&gt;assembly&lt;br&gt;&lt;/div&gt;" style="shape=step;perimeter=stepPerimeter;whiteSpace=wrap;html=1;fixedSize=1;rotation=90;horizontal=0;spacingLeft=3;spacing=3;spacingTop=7;" vertex="1" parent="WIyWlLk6GJQsqaUBKTNV-1">
          <mxGeometry x="371" y="220" width="60" height="80" as="geometry" />
        </mxCell>
        <mxCell id="Rkgqq4P7jmTMuiDcoh1J-69" style="edgeStyle=orthogonalEdgeStyle;rounded=0;orthogonalLoop=1;jettySize=auto;html=1;exitX=1;exitY=0.5;exitDx=0;exitDy=0;entryX=0.5;entryY=0;entryDx=0;entryDy=0;fontSize=10;endArrow=none;endFill=0;" edge="1" parent="WIyWlLk6GJQsqaUBKTNV-1" source="Rkgqq4P7jmTMuiDcoh1J-53" target="Rkgqq4P7jmTMuiDcoh1J-57">
          <mxGeometry relative="1" as="geometry" />
        </mxCell>
        <mxCell id="Rkgqq4P7jmTMuiDcoh1J-53" value="&lt;div style=&quot;font-size: 10px&quot;&gt;Sequence curation and framing&lt;br&gt;&lt;/div&gt;" style="shape=step;perimeter=stepPerimeter;whiteSpace=wrap;html=1;fixedSize=1;rotation=90;horizontal=0;spacingLeft=3;spacing=3;spacingTop=7;" vertex="1" parent="WIyWlLk6GJQsqaUBKTNV-1">
          <mxGeometry x="367" y="274" width="68" height="80" as="geometry" />
        </mxCell>
        <mxCell id="Rkgqq4P7jmTMuiDcoh1J-55" value="&lt;div&gt;&lt;b&gt;Outcome #1&lt;/b&gt;&lt;/div&gt;Putative positivity or negativity of samples" style="shape=hexagon;perimeter=hexagonPerimeter2;whiteSpace=wrap;html=1;fixedSize=1;fontSize=10;strokeWidth=3;" vertex="1" parent="WIyWlLk6GJQsqaUBKTNV-1">
          <mxGeometry x="479" y="170" width="120" height="80" as="geometry" />
        </mxCell>
        <mxCell id="Rkgqq4P7jmTMuiDcoh1J-56" value="&lt;div&gt;&lt;b&gt;Outcome #2&lt;/b&gt;&lt;/div&gt;Genotypes and repeat-type profiles of positive samples" style="shape=hexagon;perimeter=hexagonPerimeter2;whiteSpace=wrap;html=1;fixedSize=1;fontSize=10;strokeWidth=3;" vertex="1" parent="WIyWlLk6GJQsqaUBKTNV-1">
          <mxGeometry x="479" y="342" width="120" height="80" as="geometry" />
        </mxCell>
        <mxCell id="Rkgqq4P7jmTMuiDcoh1J-60" style="edgeStyle=orthogonalEdgeStyle;rounded=0;orthogonalLoop=1;jettySize=auto;html=1;exitX=1;exitY=0.5;exitDx=0;exitDy=0;fontSize=10;endArrow=classic;endFill=1;" edge="1" parent="WIyWlLk6GJQsqaUBKTNV-1" source="Rkgqq4P7jmTMuiDcoh1J-57" target="Rkgqq4P7jmTMuiDcoh1J-56">
          <mxGeometry relative="1" as="geometry" />
        </mxCell>
        <mxCell id="Rkgqq4P7jmTMuiDcoh1J-57" value="Repeat typing" style="rounded=0;whiteSpace=wrap;html=1;fontSize=10;fillColor=none;strokeColor=default;strokeWidth=2;" vertex="1" parent="WIyWlLk6GJQsqaUBKTNV-1">
          <mxGeometry x="341" y="360" width="120" height="44" as="geometry" />
        </mxCell>
      </root>
    </mxGraphModel>
  </diagram>
</mxfile>
